<svg width="220" height="220" viewBox="0 0 220 220" fill="none" xmlns="http://www.w3.org/2000/svg">
<path d="M220 110C220 170.751 170.751 220 110 220C49.2487 220 0 170.751 0 110C0 49.2487 49.2487 0 110 0C170.751 0 220 49.2487 220 110ZM33 110C33 152.526 67.4741 187 110 187C152.526 187 187 152.526 187 110C187 67.4741 152.526 33 110 33C67.4741 33 33 67.4741 33 110Z" fill="white"/>
<path d="M43.8855 176.114C37.4419 182.558 26.8757 182.619 21.4674 175.284C8.12684 157.193 0.566315 135.327 0.0305328 112.592C-0.635662 84.3227 9.60998 56.883 28.6406 35.9686C47.6712 15.0543 74.0249 2.2718 102.231 0.274693C130.437 -1.72241 158.329 7.21927 180.117 25.2435C201.904 43.2678 215.914 68.9901 219.238 97.0709C222.561 125.152 214.943 153.434 197.965 176.046C180.987 198.659 155.954 213.865 128.061 218.507C105.628 222.241 82.7316 218.912 62.4613 209.198C54.2436 205.259 52.3231 194.869 57.4452 187.332C62.5673 179.795 72.7985 178.031 81.2524 181.433C94.2755 186.673 108.589 188.294 122.642 185.955C142.168 182.705 159.691 172.061 171.576 156.232C183.46 140.404 188.793 120.606 186.466 100.95C184.14 81.2931 174.333 63.2875 159.082 50.6705C143.83 38.0535 124.306 31.7943 104.562 33.1923C84.8174 34.5903 66.3698 43.538 53.0484 58.178C39.727 72.8181 32.555 92.0259 33.0214 111.814C33.357 126.057 37.6313 139.813 45.2195 151.624C50.1453 159.29 50.3292 169.671 43.8855 176.114Z" fill="url(#paint0_linear_2_6645)"/>
<path d="M82.692 124.504C90.252 124.504 94.356 118.888 94.356 110.644V110.572C94.356 105.928 93.168 103.048 91.332 101.248C89.424 99.34 87.264 98.296 83.592 98.296C77.832 98.296 73.548 101.896 73.548 107.476V107.548C73.548 112.48 77.112 115.504 82.008 115.504C84.24 115.504 86.04 114.676 87.336 113.452C87.012 116.692 85.464 118.708 82.584 118.708C80.568 118.708 78.912 118.06 77.184 116.692L73.908 121.516C76.212 123.316 78.948 124.504 82.692 124.504ZM83.916 110.5C81.72 110.5 80.316 109.096 80.316 107.188V107.116C80.316 105.172 81.648 103.732 83.844 103.732C86.04 103.732 87.444 105.208 87.444 107.152V107.224C87.444 109.06 86.112 110.5 83.916 110.5ZM95.7406 124H103.445L114.569 104.056V98.8H95.1646V104.668H106.829L95.7406 124ZM121.562 112.012C125.45 112.012 128.078 108.952 128.078 105.244V105.172C128.078 101.5 125.522 98.44 121.598 98.44C117.638 98.44 115.082 101.5 115.082 105.208V105.28C115.082 108.988 117.674 112.012 121.562 112.012ZM117.854 124H122.714L142.154 98.8H137.294L117.854 124ZM138.41 124.36C142.298 124.36 144.926 121.264 144.926 117.592V117.52C144.926 113.812 142.37 110.788 138.446 110.788C134.486 110.788 131.93 113.848 131.93 117.556V117.628C131.93 121.3 134.522 124.36 138.41 124.36ZM121.598 108.052C120.41 108.052 119.474 106.864 119.474 105.244V105.172C119.474 103.588 120.302 102.4 121.562 102.4C122.786 102.4 123.686 103.624 123.686 105.208V105.28C123.686 106.864 122.822 108.052 121.598 108.052ZM138.446 120.4C137.258 120.4 136.322 119.176 136.322 117.592V117.52C136.322 115.9 137.114 114.748 138.41 114.748C139.634 114.748 140.534 115.936 140.534 117.556V117.628C140.534 119.212 139.67 120.4 138.446 120.4Z" fill="#292929"/>
<defs>
<linearGradient id="paint0_linear_2_6645" x1="0" y1="110" x2="220" y2="110" gradientUnits="userSpaceOnUse">
<stop stop-color="#FA709A"/>
<stop offset="1" stop-color="#FEE140"/>
</linearGradient>
</defs>
</svg>
