<svg width="81" height="80" viewBox="0 0 81 80" fill="none" xmlns="http://www.w3.org/2000/svg">
<path d="M40.75 0L40.7577 39.9606L56.0574 3.04481L40.7723 39.9668L69.0342 11.7157L40.7832 39.9777L77.7052 24.6926L40.7894 39.9923L80.75 40L40.7894 40.0077L77.7052 55.3074L40.7832 40.0223L69.0342 68.2842L40.7723 40.0332L56.0574 76.9552L40.7577 40.0394L40.75 80L40.7423 40.0394L25.4426 76.9552L40.7277 40.0332L12.4657 68.2842L40.7168 40.0223L3.79481 55.3074L40.7106 40.0077L0.75 40L40.7106 39.9923L3.79481 24.6926L40.7168 39.9777L12.4657 11.7157L40.7277 39.9668L25.4426 3.04481L40.7423 39.9606L40.75 0Z" fill="#64C661" stroke="#64C661" stroke-width="4"/>
</svg>
